<?xml version="1.0" standalone="no"?>
<!DOCTYPE svg PUBLIC "-//W3C//DTD SVG 20010904//EN"
 "http://www.w3.org/TR/2001/REC-SVG-20010904/DTD/svg10.dtd">
<svg version="1.0" xmlns="http://www.w3.org/2000/svg"
 width="512.000000pt" height="512.000000pt" viewBox="0 0 512.000000 512.000000"
 preserveAspectRatio="xMidYMid meet">

<g transform="translate(0.000000,512.000000) scale(0.100000,-0.100000)"
fill="#000000" stroke="none">
<path d="M2060 5105 c-330 -52 -614 -253 -773 -545 -39 -72 -91 -213 -102
-277 l-7 -42 -286 -3 c-273 -3 -290 -5 -345 -27 -126 -50 -246 -175 -282 -294
-11 -34 -60 -530 -142 -1417 -139 -1508 -135 -1425 -75 -1553 57 -121 170
-214 301 -249 60 -15 159 -17 1148 -17 l1081 -1 45 -68 c206 -309 518 -515
893 -588 118 -23 355 -24 480 -1 180 33 372 111 532 218 97 65 292 261 357
359 227 342 291 755 179 1148 -34 120 -139 330 -218 433 -122 162 -306 316
-476 399 l-65 32 -57 628 c-61 668 -64 685 -126 785 -35 55 -110 125 -168 157
-95 51 -144 58 -431 58 -218 0 -263 2 -263 14 0 34 -54 196 -90 267 -58 117
-114 194 -204 285 -241 241 -574 351 -906 299z m340 -351 c133 -34 291 -135
376 -242 46 -57 117 -192 130 -244 l6 -28 -692 0 -692 0 6 32 c3 18 22 64 42
104 149 302 495 461 824 378z m-1240 -1079 c0 -249 4 -272 59 -318 66 -55 155
-56 219 -2 58 48 62 71 62 319 l0 226 720 0 720 0 0 -225 c0 -249 4 -272 59
-318 89 -74 215 -47 262 57 16 36 19 69 19 264 l0 223 249 -3 250 -3 31 -30
c17 -16 35 -45 40 -65 11 -41 105 -1079 98 -1085 -3 -3 -42 0 -89 6 -215 28
-490 -26 -717 -140 -365 -184 -624 -517 -719 -924 -23 -96 -27 -135 -27 -277
-1 -152 14 -276 40 -345 5 -13 -107 -15 -993 -15 -948 0 -1000 1 -1033 18 -20
11 -43 34 -53 55 -18 35 -16 53 102 1349 67 722 123 1329 126 1348 7 43 30 74
70 94 25 13 73 16 268 16 l237 0 0 -225z m2846 -1320 c496 -126 828 -607 764
-1111 -53 -428 -358 -771 -780 -877 -121 -30 -349 -30 -470 0 -193 49 -363
146 -496 285 -93 97 -132 150 -184 256 -256 517 -39 1138 484 1383 210 98 456
121 682 64z"/>
<path d="M4185 1851 c-16 -10 -156 -145 -310 -300 -154 -155 -284 -281 -290
-281 -6 0 -62 52 -125 116 -63 64 -129 122 -147 130 -83 36 -178 2 -220 -80
-20 -38 -20 -114 0 -152 9 -16 100 -113 204 -216 226 -226 261 -244 358 -199
42 20 742 715 765 760 16 31 16 111 0 142 -18 35 -51 69 -82 85 -39 20 -117
18 -153 -5z"/>
</g>
</svg>
